
<svg width="24" height="24" viewBox="0 0 24 24" fill="none" xmlns="http://www.w3.org/2000/svg">
  <path d="M23.7663 12.2764C23.7663 11.4607 23.6979 10.6706 23.5727 9.90771H12.2566V14.0391H18.7519C18.5114 15.3566 17.7173 16.6675 16.5281 17.4966V20.2999H20.4437C22.7255 18.3196 23.7663 15.5894 23.7663 12.2764Z" fill="#4285F4"/>
  <path d="M12.2566 23.9999C15.4626 23.9999 18.1517 22.935 20.4437 20.2999L16.5281 17.4966C15.4749 18.2148 14.0477 18.6669 12.2566 18.6669C9.13152 18.6669 6.46228 16.6343 5.51436 13.8552H1.46893V16.7425C3.75404 21.0842 7.76249 23.9999 12.2566 23.9999Z" fill="#34A853"/>
  <path d="M5.51435 13.8552C5.30188 13.1365 5.18326 12.3776 5.18326 11.6056C5.18326 10.8335 5.30188 10.0746 5.51435 9.35599V6.46777H1.46892C0.683227 8.0338 0.235352 9.78016 0.235352 11.6056C0.235352 13.431 0.683227 15.1773 1.46892 16.7425L5.51435 13.8552Z" fill="#FBBC05"/>
  <path d="M12.2566 4.54117C14.0245 4.54117 15.6093 5.15355 16.8561 6.32092L20.3462 2.85017C18.1517 1.1411 15.4626 0 12.2566 0C7.76249 0 3.75404 2.91574 1.46893 7.25747L5.51436 10.1456C6.46228 7.36655 9.13152 5.33396 12.2566 5.33396V4.54117Z" fill="#EA4335"/>
</svg>
